<?xml version="1.0" standalone="no"?>
<!DOCTYPE svg PUBLIC "-//W3C//DTD SVG 1.1//EN" "http://www.w3.org/Graphics/SVG/1.1/DTD/svg11.dtd" >
<!--
2013-9-30: Created.
-->
<svg>
<metadata>
Created by iconfont
</metadata>
<defs>

<font id="scene-admin-front-icon" horiz-adv-x="1024" >
  <font-face
    font-family="scene-admin-front-icon"
    font-weight="500"
    font-stretch="normal"
    units-per-em="1024"
    ascent="896"
    descent="-128"
  />
    <missing-glyph />
    
    <glyph glyph-name="LOGO02" unicode="&#59377;" d="M472.576 515.84l-1.024-0.512 1.024-0.512zM912.64 319.232v-171.008l-328.704-189.696v169.984zM111.36 319.232v-171.008l148.992-85.248v170.24zM512 388.352L172.8 584.704v-171.52l267.264-154.112v-300.8l51.712-29.952c12.544-7.168 28.16-7.168 40.704 0l51.712 29.952V346.88L512 388.352zM512 388.352L111.36 620.8v-171.264l328.448-190.208v-300.544l51.712-29.952c12.544-7.168 28.16-7.168 40.704 0l51.712 29.952V259.072l328.448 190.208v171.264L512 388.352zM911.872 621.056L531.712 839.424c-12.544 7.168-27.904 7.168-40.448 0L217.344 681.728l0.512-0.256 146.944-84.992 146.688 83.712 253.184-144.896 147.712 85.76h-0.512z"  horiz-adv-x="1024" />

    
    <glyph glyph-name="shenhetongguo" unicode="&#60043;" d="M684.8 467.2c140.8 0 256-115.2 256-256s-115.2-256-256-256-256 115.2-256 256 115.2 256 256 256m0 83.2c-185.6 0-339.2-153.6-339.2-339.2S499.2-128 684.8-128s339.2 153.6 339.2 339.2-153.6 339.2-339.2 339.2zM633.6 76.8c-12.8 0-19.2 6.4-32 12.8l-76.8 76.8c-19.2 12.8-19.2 44.8 0 57.6 19.2 19.2 44.8 19.2 57.6 0l51.2-44.8 172.8 166.4c19.2 19.2 44.8 12.8 57.6 0 19.2-19.2 12.8-44.8 0-57.6l-204.8-192c-6.4-19.2-19.2-19.2-25.6-19.2zM614.4 608H217.6c-25.6 0-44.8 19.2-44.8 38.4s19.2 44.8 44.8 44.8h396.8c25.6 0 44.8-19.2 44.8-44.8s-25.6-38.4-44.8-38.4zM288 403.2H217.6c-25.6 0-44.8 19.2-44.8 38.4 0 25.6 19.2 44.8 44.8 44.8h70.4c25.6 0 44.8-19.2 44.8-44.8 0-19.2-19.2-38.4-44.8-38.4zM262.4-70.4H108.8c-57.6 0-108.8 44.8-108.8 108.8V787.2C0 844.8 44.8 896 108.8 896h627.2c57.6 0 108.8-44.8 108.8-108.8v-102.4c0-25.6-19.2-44.8-44.8-44.8s-44.8 19.2-44.8 44.8V787.2c0 12.8-6.4 19.2-19.2 19.2H108.8c-12.8 0-19.2-6.4-19.2-19.2v-748.8c0-12.8 6.4-19.2 19.2-19.2h153.6c25.6 0 44.8-19.2 44.8-44.8 0-25.6-19.2-44.8-44.8-44.8z"  horiz-adv-x="1024" />

    
    <glyph glyph-name="quxiao" unicode="&#59591;" d="M986.153086 579.950617c-25.283951 63.209877-63.209877 113.777778-107.45679 164.345679C828.128395 794.864198 771.239506 826.469136 708.02963 858.074074 644.819753 883.358025 575.288889 896 512.079012 896S373.017284 883.358025 316.128395 858.074074c-63.209877-31.604938-120.098765-63.209877-164.345679-113.777778C101.214815 700.049383 69.609877 643.160494 38.004938 579.950617c-25.283951-56.888889-37.925926-126.419753-37.925926-195.950617s12.641975-139.061728 37.925926-195.950617c25.283951-63.209877 63.209877-113.777778 107.45679-164.345679 50.567901-50.567901 107.45679-82.17284 170.666667-113.777778 63.209877-25.283951 132.740741-37.925926 195.950617-37.925926s139.061728 12.641975 195.950618 37.925926c63.209877 25.283951 113.777778 63.209877 164.345679 107.45679 44.246914 44.246914 82.17284 101.135802 107.45679 164.345679 25.283951 63.209877 37.925926 132.740741 37.925926 195.950617 6.320988 75.851852-6.320988 145.382716-31.604939 202.271605zM512.079012-45.82716c-240.197531 0-429.82716 195.950617-429.82716 429.82716 0 240.197531 195.950617 429.82716 429.82716 429.82716s429.82716-195.950617 429.827161-429.82716-189.62963-429.82716-429.827161-429.82716zM562.646914 384l176.987654 176.987654c12.641975 12.641975 12.641975 37.925926 0 50.567902-6.320988 6.320988-18.962963 12.641975-25.283951 12.641975-12.641975 0-18.962963-6.320988-25.28395-12.641975L505.758025 440.888889 335.091358 611.555556c-6.320988 12.641975-18.962963 12.641975-25.283951 12.641975-12.641975 0-18.962963-6.320988-25.28395-12.641975-18.962963-12.641975-18.962963-37.925926-6.320988-50.567902L455.190123 384l-176.987654-176.987654c-6.320988-6.320988-12.641975-12.641975-12.641975-25.283951s6.320988-18.962963 12.641975-25.283951c6.320988-6.320988 18.962963-12.641975 25.283951-12.641975 12.641975 0 18.962963 6.320988 25.28395 12.641975l176.987655 176.987655 176.987654-176.987655c6.320988-6.320988 12.641975-12.641975 25.283951-12.641975s18.962963 6.320988 25.28395 12.641975c6.320988 6.320988 12.641975 18.962963 12.641976 25.283951 0 12.641975-6.320988 18.962963-12.641976 25.283951L562.646914 384z"  horiz-adv-x="1032" />

    
    <glyph glyph-name="shangchuan" unicode="&#59589;" d="M889.6 761.6V768h-89.6l32-83.2 96-262.4h-262.4V384c0-83.2-64-147.2-147.2-147.2S364.8 300.8 364.8 384v44.8H102.4l96 262.4 25.6 76.8H140.8L0 390.4V-128h1024V390.4l-134.4 371.2zM83.2-44.8v384h204.8c12.8-57.6 44.8-108.8 89.6-140.8 51.2-38.4 108.8-51.2 172.8-44.8 96 12.8 172.8 89.6 192 185.6h204.8v-384H83.2zM512 896L377.6 768l64-64 32 32v-409.6h83.2V736l25.6-32 64 64L512 896z"  horiz-adv-x="1024" />

    
    <glyph glyph-name="paixu" unicode="&#59590;" d="M0 844.8h339.2v-83.2H0V844.8z m0-409.6h339.2v-83.2H0V435.2z m0-416h339.2V-64H0v83.2z m537.6 70.4L384 230.4l-57.6-64 294.4-275.2V857.6H537.6v-768z m192 780.8v-953.6h83.2V678.4l153.6-140.8 57.6 64c0-6.4-294.4 268.8-294.4 268.8z"  horiz-adv-x="1024" />

    
    <glyph glyph-name="shibai" unicode="&#59584;" d="M512 896C228.430769 896 0 667.569231 0 384s228.430769-512 512-512 512 228.430769 512 512S795.569231 896 512 896zM354.461538 187.076923c-11.815385 0-19.692308 3.938462-27.56923 11.815385-15.753846 15.753846-15.753846 39.384615 0 55.138461l315.076923 315.076923c15.753846 15.753846 39.384615 15.753846 55.138461 0s15.753846-39.384615 0-55.138461l-315.076923-315.076923c-7.876923-7.876923-15.753846-11.815385-27.569231-11.815385zM669.538462 187.076923c-11.815385 0-19.692308 3.938462-27.569231 11.815385l-315.076923 315.076923c-15.753846 15.753846-15.753846 39.384615 0 55.138461s39.384615 15.753846 55.138461 0l315.076923-315.076923c15.753846-15.753846 15.753846-39.384615 0-55.138461-7.876923-7.876923-15.753846-11.815385-27.56923-11.815385z"  horiz-adv-x="1024" />

    
    <glyph glyph-name="tixing" unicode="&#59585;" d="M512 896C228.430769 896 0 667.569231 0 384s228.430769-512 512-512 512 228.430769 512 512S795.569231 896 512 896zM460.8 659.692308h102.4v-374.153846h-102.4zM460.8 210.707692h102.4V108.307692h-102.4z"  horiz-adv-x="1024" />

    
    <glyph glyph-name="chenggong" unicode="&#59586;" d="M512.215722 896C220.89226 896-11.379149 655.854984 0.431262 364.531522 12.241672 100.765685 228.765867-115.758509 492.531704-127.56892c291.323462-11.810411 531.468478 220.460998 531.468478 511.78446 0 283.449855-228.334605 511.78446-511.78446 511.78446zM441.353258 199.185774c-7.873607 0-19.684018 3.936804-27.557625 11.81041L264.197099 344.847505c-15.747214 15.747214-15.747214 39.368035-3.936804 55.115249s39.368035 15.747214 55.11525 3.936804l122.040909-110.230499 263.765837 263.765837c15.747214 15.747214 39.368035 15.747214 55.11525 0 15.747214-15.747214 15.747214-39.368035 0-55.11525l-291.323462-291.323462c-3.936804-7.873607-11.810411-11.810411-23.620821-11.81041z"  horiz-adv-x="1024" />

    
    <glyph glyph-name="shanchu1" unicode="&#59587;" d="M512 896C228.430769 896 0 667.569231 0 384s228.430769-512 512-512 512 228.430769 512 512S795.569231 896 512 896zM748.307692 565.169231h-133.907692V608.492308c0 27.569231-23.630769 51.2-47.261538 51.2h-114.215385c-27.569231 0-51.2-23.630769-51.2-51.2v-47.261539H271.753846c-15.753846 3.938462-19.692308-7.876923-19.692308-19.692307s11.815385-19.692308 19.692308-19.692308h35.446154v-362.338462c-3.938462-27.569231 23.630769-51.2 47.261538-51.2h311.138462c27.569231 0 51.2 23.630769 51.2 51.2V521.846154h35.446154c11.815385 0 19.692308 11.815385 19.692308 19.692308s-7.876923 23.630769-23.63077 23.630769z m-271.753846-307.2c0-7.876923-11.815385-19.692308-19.692308-19.692308s-19.692308 7.876923-19.692307 19.692308v141.784615c0 7.876923 11.815385 19.692308 19.692307 19.692308s19.692308-7.876923 19.692308-19.692308v-141.784615z m19.692308 303.261538H433.230769V608.492308c0 3.938462 3.938462 7.876923 7.876923 7.876923h129.969231c3.938462 0 7.876923-3.938462 7.876923-7.876923v-47.261539h-82.707692z m90.584615-303.261538c0-11.815385-11.815385-19.692308-19.692307-19.692308s-19.692308 11.815385-19.692308 19.692308v141.784615c0 11.815385 11.815385 19.692308 19.692308 19.692308s19.692308-11.815385 19.692307-19.692308v-141.784615z"  horiz-adv-x="1024" />

    
    <glyph glyph-name="shanchu" unicode="&#59544;" d="M957.852962 717.658815H708.613847V803.905782C708.613847 854.33833 666.952177 896 617.250535 896H406.749465c-49.701642 0-91.363312-41.66167-91.363312-92.094218v-86.246967H66.147038c-21.196288 0-39.468951-18.272662-39.468951-39.468951s18.272662-39.468951 39.468951-39.46895h65.781584v-674.626696c0-49.701642 41.66167-92.094218 92.094219-92.094218h577.416131c49.701642 0 92.094218 41.66167 92.094219 92.094218V638.720914h65.781584c21.196288 0 39.468951 18.272662 39.468951 39.46895s-19.734475 39.468951-40.930764 39.468951zM393.593148 803.905782c0 8.039971 5.116345 13.156317 13.156317 13.156317h209.770164c8.039971 0 13.156317-5.116345 13.156317-13.156317v-86.246967H393.593148V803.905782z m420.271235-839.080657c0-8.039971-5.116345-13.156317-13.156317-13.156317h-577.416132c-8.039971 0-13.156317 5.116345-13.156317 13.156317V633.604568h603.728766v-668.779443z m-407.114918 143.988579c21.196288 0 39.468951 18.272662 39.46895 39.468951V410.678087a40.199857 40.199857 0 0 1-39.46895 39.468951 40.199857 40.199857 0 0 1-39.468951-39.468951v-262.395432c0.730906-21.196288 19.003569-39.468951 39.468951-39.468951z m210.50107 0c21.196288 0 39.468951 18.272662 39.468951 39.468951V410.678087c0 21.196288-18.272662 39.468951-39.468951 39.468951s-39.468951-18.272662-39.46895-39.468951v-262.395432c0-21.196288 18.272662-39.468951 39.46895-39.468951z"  horiz-adv-x="1024" />

    
    <glyph glyph-name="fangwenkongzhi" unicode="&#59535;" d="M729.80656-48.3325H118.778761c-8.039839 0-13.156101 5.116261-13.156101 13.156101V803.890483c0 8.039839 5.116261 13.156101 13.156101 13.156101h380.796033v-196.61062c0-49.700826 41.660986-92.092707 92.092706-92.092706h196.61062v-47.508143c0-21.19594 18.272362-39.468303 39.468302-39.468302s39.468303 18.272362 39.468303 39.468302V646.748166c0 10.232523-5.116261 21.19594-10.232523 28.504886L645.753693 885.750666A41.514807 41.514807 0 0 1 617.248807 895.983189H118.778761C68.347041 895.983189 26.686054 854.322203 26.686054 803.890483v-839.797776c0-49.700826 41.660986-92.092707 92.092707-92.092707h611.027799c21.19594 0 39.468303 18.272362 39.468303 39.468303s-18.272362 40.199197-39.468303 40.199197z m57.740665 676.808304v-21.195941H590.936606c-8.039839 0-13.156101 5.116261-13.156101 13.156101V817.046584h23.388624l186.378096-188.57078z m170.298418-349.36757H645.753693l62.856927 62.856927c16.079679 16.079679 16.079679 39.468303 0 54.817087a37.20253 37.20253 0 0 1-54.817088 0l-131.561009-130.830114c-16.079679-16.079679-16.079679-39.468303 0-54.817088l130.830115-130.830115c8.039839-8.039839 18.272362-10.232523 28.504885-10.232522s21.19594 2.923578 28.504886 10.232522c16.079679 16.079679 16.079679 39.468303 0 54.817088l-65.780505 65.780504h312.09195c21.19594 0 39.468303 18.272362 39.468303 39.468303 1.461789 20.465046-16.810573 38.737408-38.006514 38.737408z"  horiz-adv-x="1024" />

    
    <glyph glyph-name="chajianpeizhi" unicode="&#59536;" d="M629.76 185.782857v-122.148571a35.84 35.84 0 0 1 71.68 0V186.514286c52.662857 16.091429 89.234286 65.097143 89.234286 120.685714s-36.571429 104.594286-89.234286 120.685714V711.68a35.84 35.84 0 0 1-71.68 0V427.885714c-53.394286-15.36-90.697143-64.365714-90.697143-120.685714 0-56.32 37.302857-105.325714 90.697143-121.417143z m-8.777143 121.417143c0 24.137143 19.748571 43.885714 43.885714 43.885714 24.137143 0 43.154286-19.748571 43.154286-43.885714s-19.748571-43.885714-43.154286-43.885714c-24.137143 0-43.885714 19.748571-43.885714 43.885714zM866.011429 896H157.988571C72.411429 896 2.194286 825.782857 2.194286 740.205714v-712.411428C2.194286-58.514286 72.411429-128 157.988571-128h707.291429c86.308571 0 155.794286 70.217143 155.794286 155.794286V740.205714C1021.805714 825.782857 951.588571 896 866.011429 896zM84.114286 741.668571c0.731429 40.228571 33.645714 72.411429 73.874285 72.411429H866.742857c40.228571-0.731429 72.411429-33.645714 72.411429-73.874286v-713.142857c-0.731429-40.228571-33.645714-72.411429-73.874286-72.411428H157.257143a73.874286 73.874286 0 0 0-72.411429 73.874285V741.668571zM325.485714 350.354286v-285.988572a35.84 35.84 0 0 1 71.68 0v285.257143c54.125714 14.628571 91.428571 63.634286 91.428572 120.685714 0 57.051429-37.302857 106.057143-91.428572 121.417143V711.68a35.84 35.84 0 0 1-71.68 0v-121.417143a125.805714 125.805714 0 0 1 0-239.908571z m-5.851428 119.954285c0 24.137143 19.748571 43.885714 43.885714 43.885715 24.137143 0 43.154286-19.748571 43.154286-43.885715s-19.748571-43.885714-43.154286-43.885714c-2.925714 0-5.12 0-7.314286 0.731429a41.545143 41.545143 0 0 0-19.017143 8.777143l-3.657142 2.194285a44.836571 44.836571 0 0 0-13.897143 32.182857z"  horiz-adv-x="1024" />

    
    <glyph glyph-name="lixianbaoxiazai" unicode="&#59537;" d="M888.685714 763.611429l-2.194285 7.314285H595.382857v-84.114285h231.862857l94.354286-260.388572H657.554286V384c0-80.457143-65.097143-145.554286-145.554286-145.554286S366.445714 303.542857 366.445714 384v42.422857H102.4l94.354286 260.388572h231.862857V770.925714H138.24L0.731429 393.508571 0-128h1024V389.851429l-135.314286 373.76z m-804.571428-807.497143V341.577143h201.874285c10.24-57.051429 41.691429-107.52 88.502858-142.628572 49.005714-36.571429 109.714286-52.662857 170.422857-43.885714a231.643429 231.643429 0 0 1 193.828571 185.782857h201.874286v-385.462857H84.114286zM512 324.754286l131.657143 130.925714-59.977143 59.977143-29.257143-29.988572V896H469.577143v-410.331429l-29.257143 29.988572-59.977143-59.977143z"  horiz-adv-x="1024" />

    
    <glyph glyph-name="fabu" unicode="&#59538;" d="M49.005714 886.491429a48.274286 48.274286 0 0 1-48.274285-48.274286v-908.434286c0-26.331429 21.942857-48.274286 48.274285-48.274286h368.64a38.765714 38.765714 0 0 1 43.154286 33.645715v5.851428c0 27.062857-19.748571 51.2-35.84 51.931429H92.891429V795.794286h715.337142v-356.205715c0-16.822857 24.868571-32.182857 52.662858-32.182857h2.925714c18.285714 0 32.914286 12.434286 35.84 30.72v5.851429h0.731428V838.217143a48.274286 48.274286 0 0 1-48.274285 48.274286H49.005714zM160.914286 138.24v-1.462857c0-18.285714 14.628571-40.96 31.451428-40.96H314.514286c16.822857 0 31.451429 23.405714 31.451428 40.96s-14.628571 41.691429-31.451428 41.691428H192.365714c-15.36 0-30.72-22.674286-31.451428-40.228571zM192.365714 424.96c-16.091429 0-31.451429-23.405714-31.451428-40.96 0-19.017143 13.897143-40.96 32.182857-40.96h312.32c16.091429 0 32.182857 23.405714 32.182857 40.96v6.582857c-3.657143 16.822857-16.822857 34.377143-32.182857 34.377143H192.365714zM192.365714 669.257143c-16.091429 0-31.451429-23.405714-31.451428-40.96 0.731429-18.285714 15.36-40.96 32.182857-40.96h520.045714c16.822857 0 31.451429 23.405714 31.451429 40.96s-14.628571 40.96-31.451429 40.96H192.365714zM1010.834286 264.777143a50.907429 50.907429 0 0 1-71.68 5.12l-247.222857-231.862857-102.4 98.011428a55.076571 55.076571 0 0 1-35.84 15.36 49.737143 49.737143 0 0 1-35.84-14.628571c-19.748571-19.748571-19.748571-51.931429 0-72.411429l139.702857-133.12a51.053714 51.053714 0 0 1 70.217143 0l280.137142 262.582857c10.24 8.777143 16.091429 21.211429 17.554286 35.108572a67.145143 67.145143 0 0 1-14.628571 35.84z m-487.862857-198.217143z"  horiz-adv-x="1025" />

    
    <glyph glyph-name="gengxinmoxing" unicode="&#59539;" d="M849.92-18.285714h46.08c-28.525714-21.942857-63.634286-34.377143-99.474286-34.377143-84.845714 0-156.525714 66.56-162.377143 151.405714l-0.731428 13.165714h-63.634286l0.731429-14.628571a226.669714 226.669714 0 0 1 364.982857-165.302857v-41.691429h62.902857v154.331429h-148.48v-62.902857zM743.862857 239.908571h-46.08c28.525714 21.942857 63.634286 34.377143 99.474286 34.377143 84.845714 0 156.525714-66.56 162.377143-151.405714l0.731428-13.165714H1024l-0.731429 14.628571a227.108571 227.108571 0 0 1-226.011428 212.845714c-50.468571 0-98.742857-16.822857-138.971429-47.542857v40.96h-62.902857v-154.331428h148.48v63.634285zM473.234286-0.731429v66.56c-0.731429 7.314286-0.731429 34.377143 0 41.691429V349.622857l314.514285 181.394286v-77.531429c9.508571 0.731429 18.285714 2.925714 27.062858 2.925715 16.822857 0 33.645714-2.925714 49.737142-5.12v182.857142l-26.331428 16.822858L434.468571 882.834286 432.274286 883.565714 30.72 651.702857l-29.257143-16.091428-1.462857-1.462858v-499.565714l397.897143-228.205714 32.914286-20.48 1.462857-1.462857 39.497143 21.211428 1.462857 93.622857z m-76.8 0l-314.514286 181.394286v351.085714l314.514286-181.394285v-351.085715zM109.714286 607.085714l322.56 185.782857 322.56-185.782857-322.56-190.171428-322.56 190.171428z"  horiz-adv-x="1024" />

    
    <glyph glyph-name="chuangjian" unicode="&#59540;" d="M512 896C229.668571 896 0 666.331429 0 384s229.668571-512 512-512 512 229.668571 512 512-229.668571 512-512 512z m0-949.394286c-239.908571 0-437.394286 197.485714-437.394286 437.394286S272.091429 821.394286 512 821.394286s437.394286-197.485714 437.394286-437.394286-197.485714-437.394286-437.394286-437.394286z m199.68 474.697143H549.302857V583.68c0 19.748571-17.554286 37.302857-37.302857 37.302857s-37.302857-17.554286-37.302857-37.302857v-162.377143H312.32c-19.748571 0-37.302857-17.554286-37.302857-37.302857s17.554286-37.302857 37.302857-37.302857h162.377143v-162.377143c0-19.748571 17.554286-37.302857 37.302857-37.302857s37.302857 17.554286 37.302857 37.302857V346.697143h162.377143c19.748571 0 37.302857 17.554286 37.302857 37.302857s-17.554286 37.302857-37.302857 37.302857z"  horiz-adv-x="1024" />

    
    <glyph glyph-name="gengxinquanjingtu" unicode="&#59541;" d="M262.585051 577.828571a66.56 66.56 0 0 1-19.748571-46.811428c0-36.571429 29.988571-66.56 66.56-66.56s66.56 29.988571 66.56 66.56-29.988571 66.56-66.56 66.56c-18.285714 0-34.377143-7.314286-46.811429-19.748572zM858.699337 20.48h32.182857c-22.674286-13.897143-49.005714-21.942857-75.337143-21.942857-73.874286 0-136.045714 57.782857-141.897142 131.657143l-0.731429 16.091428h-65.828571l1.462857-18.285714a207.433143 207.433143 0 0 1 206.994285-194.56c43.154286 0 84.845714 13.165714 119.954286 38.765714v-32.914285h65.097143v147.017142h-141.897143v-65.828571zM957.442194 151.405714l1.462857-15.36H1024.002194l-1.462857 18.285715a207.433143 207.433143 0 0 1-206.994286 194.56c-43.885714 0-84.845714-13.165714-119.954285-38.765715v32.914286h-65.097143v-147.017143h141.897143v65.097143h-32.182857c22.674286 13.897143 49.005714 21.942857 75.337142 21.942857 74.605714 0 136.777143-57.782857 141.897143-131.657143zM939.15648 736.548571v-266.24l2.194286-1.462857c27.062857-13.165714 51.931429-29.988571 73.142857-49.737143l2.194286-0.731428 7.314285-0.731429V764.342857c0 21.942857-5.12 39.497143-16.091428 50.468572-9.508571 9.508571-23.405714 14.628571-40.228572 14.628571-8.045714 0-20.48-1.462857-37.302857-6.582857-125.805714-36.571429-272.822857-73.142857-415.451428-73.142857C395.705051 749.714286 259.659337 775.314286 99.47648 828.708571 65.830766 839.68 40.230766 836.022857 22.67648 818.468571-0.729234 793.6 0.002194 751.908571 0.002194 749.714286v-751.908572c0-22.674286 9.508571-42.422857 27.062857-54.857143 0.731429-0.731429 17.554286-9.508571 49.737143-9.508571 16.822857 0 35.84 2.925714 55.588572 8.045714 101.668571 32.182857 222.354286 49.737143 350.354285 51.931429h6.582858l-2.925715 5.851428c-16.822857 37.302857-13.897143 73.142857-13.897143 73.874286l0.731429 5.12H468.11648c-114.834286-2.925714-226.742857-18.285714-323.291429-45.348571l147.017143 199.68 164.571429-106.788572 2.925714-2.194285 34.377143 35.84 1.462857 1.462857 1.462857 123.611428-49.737143-51.2L270.630766 346.697143l-185.782857-252.342857V743.862857c163.84-53.394286 305.005714-79.725714 430.08-79.725714 149.211429 0 297.691429 36.571429 424.228571 72.411428z"  horiz-adv-x="1024" />

    
    <glyph glyph-name="fuzhizhanting" unicode="&#59542;" d="M589.841542 504.965025H475.820128V618.986438c0 22.658101-19.734475 42.392577-42.392576 42.392577-22.658101 0-42.392577-19.734475-42.392577-42.392577v-113.290507H277.013562c-22.658101 0-42.392577-19.734475-42.392577-42.392576 0-22.658101 19.734475-42.392577 42.392577-42.392577h113.290507v-113.290507c0-22.658101 19.734475-42.392577 42.392576-42.392576 22.658101 0 42.392577 19.734475 42.392577 42.392576V419.448965h113.290507c22.658101 0 42.392577 19.734475 42.392576 42.392577a41.369308 41.369308 0 0 1-40.930763 43.123483zM928.251249 739.58601h-61.396146V800.982156c0 51.163455-43.123483 95.017844-95.017844 95.017844H95.017844C43.123483 896 0 852.876517 0 800.982156v-677.550322c0-51.163455 43.123483-95.017844 95.017844-95.017844h61.396146v-61.396146c0-51.163455 43.123483-95.017844 95.017844-95.017844h677.550322c51.163455 0 95.017844 43.123483 95.017844 95.017844V644.568166c-0.730906 51.894361-43.85439 95.017844-95.748751 95.017844z m9.501785-95.017844v-677.550322c0-5.847252-3.654532-9.501784-9.501785-9.501784H251.431834c-5.847252 0-9.501784 3.654532-9.501784 9.501784v61.396146h530.638116c51.163455 0 95.017844 43.123483 95.017844 95.017844V654.06995h61.396146c5.116345 0 8.770878-3.654532 8.770878-9.501784z m-165.915775-529.90721H95.017844c-5.847252 0-9.501784 3.654532-9.501784 9.501785V800.982156c0 5.847252 3.654532 9.501784 9.501784 9.501784h677.550322c5.847252 0 9.501784-3.654532 9.501784-9.501784v-677.550322c-0.730906-5.116345-4.385439-8.770878-10.232691-8.770878z"  horiz-adv-x="1024" />

    
    <glyph glyph-name="xiugai" unicode="&#59543;" d="M981.577143 424.96c-21.942857 0-41.691429-19.017143-41.691429-41.691429v-414.72c0-8.045714-5.851429-13.897143-13.897143-13.897142H97.28c-8.045714 0-13.897143 5.851429-13.897143 13.897142V797.988571c0 8.045714 5.851429 13.897143 13.897143 13.897143H512c21.942857 0 41.691429 19.017143 41.691429 41.691429S533.942857 894.537143 512 894.537143H97.28C44.617143 894.537143 0.731429 850.651429 0.731429 797.988571v-829.44c0-52.662857 43.885714-96.548571 96.548571-96.548571h829.44c52.662857 0 96.548571 43.885714 96.548571 96.548571V383.268571c0 21.942857-19.017143 41.691429-41.691428 41.691429zM401.554286 446.902857l-41.691429-163.108571c-2.925714-13.897143 0-30.72 10.971429-38.765715 8.045714-8.045714 19.017143-10.971429 30.72-10.971428h10.971428l163.108572 41.691428a48.274286 48.274286 0 0 1 19.017143 10.971429L984.502857 676.571429c49.737143 49.737143 49.737143 132.388571 0 182.125714-49.737143 49.737143-132.388571 49.737143-182.125714 0L412.525714 465.92c-5.851429-5.12-8.045714-10.971429-10.971428-19.017143z m77.531428-30.72l384 381.074286c16.822857 16.822857 46.811429 16.822857 63.634286 0 16.822857-16.822857 16.822857-46.811429 0-63.634286L544.914286 350.354286l-85.577143-21.942857 19.748571 87.771428z"  horiz-adv-x="1024" />

    
    <glyph glyph-name="tongjifenxi" unicode="&#59526;" d="M16 241.92v-336h285.44V364.16l-78.08 54.4zM368.64 325.76v-419.84h285.44V361.6l-138.24-116.48zM721.28 415.36v-509.44h284.8V412.16l-121.6 160zM63.36 369.92L218.24 499.2l296.32-180.48 351.36 330.88c1.28 1.28 2.56 2.56 3.2 3.84l58.88-60.16L1024 862.08 750.72 774.4l65.28-65.92c-0.64-0.64-1.92-1.28-2.56-1.92L504.32 415.36 211.2 593.92 14.08 428.8c-16-13.44-18.56-37.76-5.12-54.4 13.44-16 37.76-18.56 54.4-4.48z"  horiz-adv-x="1024" />

    
    <glyph glyph-name="xitongguanli" unicode="&#59527;" d="M931.2 856.96H92.8C37.12 856.96 6.4 824.96 6.4 771.84v-564.48c0-53.76 30.72-85.12 86.4-85.12h838.4c55.68 0 86.4 32 86.4 85.12V771.2c0 53.76-30.72 85.76-86.4 85.76z m-166.4-403.2c-2.56-12.16-12.16-21.76-23.68-24.96l-7.68-1.92c-42.24-12.16-67.2-55.68-56.96-97.92l2.56-7.68c3.2-11.52-0.64-24.32-9.6-32.64 0 0-7.68-6.4-29.44-19.2-21.76-12.8-31.36-16-31.36-16-11.52-3.84-24.32-0.64-33.28 8.32l-6.4 5.12c-32 30.08-81.92 30.08-113.28 0l-5.76-5.76c-8.96-8.32-21.76-11.52-33.28-8.32 0 0-9.6 3.2-31.36 16-21.76 12.8-29.44 19.2-29.44 19.2a32.768 32.768 0 0 0-10.24 33.28l2.56 7.68c9.6 42.88-15.36 86.4-56.96 98.56l-8.32 1.92a33.472 33.472 0 0 0-23.68 24.96s-1.92 10.24-1.92 35.2 1.92 35.2 1.92 35.2a34.56 34.56 0 0 0 23.68 24.96l7.68 1.92c42.24 12.8 66.56 55.68 56.96 97.92l-1.92 7.68c-3.2 12.16 0.64 24.96 9.6 33.28 0 0 7.68 7.04 29.44 19.2 22.4 12.8 31.36 16 31.36 16 11.52 3.84 24.32 0.64 33.28-8.32l5.76-5.76c15.36-14.08 35.84-22.4 56.96-22.4s41.6 7.68 56.32 22.4l5.76 6.4c8.96 8.32 21.76 11.52 33.92 7.68 10.88-4.48 21.12-9.6 31.36-16 21.76-12.8 30.08-19.2 30.08-19.2 8.96-8.32 12.8-21.12 9.6-33.28l-2.56-7.68a83.2 83.2 0 0 1 56.32-98.56l8.32-1.92c12.16-3.2 21.12-12.8 23.68-24.96 0 0 1.92-10.24 1.92-35.2s-1.92-35.2-1.92-35.2zM513.92 590.72c-56.32 0-101.12-45.44-101.12-101.76 0-55.68 44.8-101.12 101.12-101.12 55.68 2.56 99.2 49.28 97.28 105.6-1.92 53.12-44.16 96-97.28 97.28zM833.92 0.64h-640c-24.96 0-44.8-19.84-44.8-44.8s19.84-44.8 44.8-44.8h640c24.96 0 44.8 19.84 44.8 44.8s-19.84 44.8-44.8 44.8z"  horiz-adv-x="1024" />

    
    <glyph glyph-name="yingxiaoguanli" unicode="&#59528;" d="M1024 167.04V752c0 19.84-16.64 36.48-36.48 36.48H548.48V861.44H475.52v-72.96H36.48c-19.84 0-36.48-16.64-36.48-36.48v-584.96c0-19.84 16.64-36.48 36.48-36.48h439.04v-57.6l-174.72-102.4 36.48-64 164.48 96h21.76l164.48-96 36.48 64-176.64 102.4v57.6h439.04c20.48 0 37.12 16 37.12 36.48z m-193.92 475.52l47.36-55.68-361.6-309.12-186.88 156.8-135.04-113.28-46.72 55.68 183.04 152.96 186.24-157.44 313.6 270.08z"  horiz-adv-x="1024" />

    
    <glyph glyph-name="zhantingguanli" unicode="&#59529;" d="M988.8 815.36a19.84 19.84 0 0 1-19.2 16.64H54.4a19.84 19.84 0 0 1-19.2-16.64S0 538.88 0 533.76c0-48.64 30.72-90.24 74.88-105.6v-472.96c0-10.88 8.32-19.2 18.56-19.2h837.12c10.24 0 18.56 8.32 18.56 18.56v473.6c44.16 14.72 74.88 56.96 74.88 104.96 0 7.04-35.2 282.24-35.2 282.24z m-340.48-58.24l8.32-224H555.52l-8.32 224h101.12z m-272.64 0h101.12l-8.32-224H367.36l8.32 224z m-171.52 0h101.12l-24.96-224H179.2l24.96 224z m419.84-746.24h-224v186.88h224v-186.88z m186.88 272H213.12V428.16c17.92 6.4 34.56 17.92 46.72 32a110.528 110.528 0 0 1 167.68 0c21.12-23.68 50.56-39.04 84.48-39.04 33.28 0 63.36 14.72 83.84 38.4a110.528 110.528 0 0 1 167.68 0c12.16-14.08 28.8-24.96 46.72-32v-144.64z m-67.2 250.24l-24.96 224h101.12l24.96-224h-101.12z"  horiz-adv-x="1024" />

    
    <glyph glyph-name="tongyongguanli" unicode="&#59530;" d="M963.84 216.96L519.68 32 60.16 223.36c-21.12 8.96-44.8-1.28-53.76-22.4s1.28-44.8 22.4-53.76l475.52-197.76c10.88-4.48 21.76-3.84 31.36 0l459.52 190.72a41.472 41.472 0 0 1-31.36 76.8zM28.8 348.8l475.52-197.76c10.88-4.48 21.76-3.84 31.36 0l459.52 190.72c21.12 8.96 30.72 32.64 22.4 53.76s-32.64 30.72-53.76 22.4l-444.16-184.96-459.52 192c-21.12 8.32-44.8-1.28-53.76-22.4s1.28-44.8 22.4-53.76zM28.8 551.04l475.52-197.76c10.88-4.48 21.76-3.84 32 0l459.52 190.72c16 6.4 25.6 21.76 24.96 38.4 0 16-9.6 31.36-25.6 37.76l-475.52 198.4a35.072 35.072 0 0 1-16 2.56 35.84 35.84 0 0 1-16-3.2L28.8 627.84a39.68 39.68 0 0 1-22.4-23.04c-8.96-21.12 1.28-44.8 22.4-53.76z"  horiz-adv-x="1024" />

    
    <glyph glyph-name="pinglunguanli" unicode="&#59531;" d="M893.44 727.68h-58.24c0 60.16 4.48 120.96-116.48 120.96h-595.2C50.56 848.64 0 790.4 0 725.12V275.2c0-72.32 50.56-123.52 123.52-123.52h21.76c14.72-58.24 65.28-94.72 123.52-94.72h145.28l108.8-108.8c21.76-21.76 43.52-28.8 65.28-28.8 14.72 0 28.8 7.04 43.52 21.76l116.48 116.48h145.28c72.32 0 130.56 50.56 130.56 123.52V604.16c0 72.32-65.28 123.52-130.56 123.52zM358.4 345.6c-35.2 0-64 28.8-64 64s28.8 64 64 64 64-28.8 64-64-28.8-64-64-64z m234.88 0c-35.2 0-64 28.8-64 64s28.8 64 64 64 64-28.8 64-64-28.8-64-64-64zM261.76 720c-21.76 0-50.56-7.04-72.32-21.76-7.68-7.04-15.36-14.08-22.4-21.76-21.76-21.76-28.8-43.52-28.8-72.32v-401.92h-14.72c-36.48 0-65.28 28.8-65.28 65.28V718.08c0 36.48 28.8 65.28 65.28 65.28h625.92s20.48 1.28 20.48-29.44v-33.92H261.76z m565.76-374.4c-35.2 0-64 28.8-64 64s28.8 64 64 64 64-28.8 64-64-28.16-64-64-64z"  horiz-adv-x="1024" />

    
    <glyph glyph-name="mobanguanli" unicode="&#59532;" d="M99.2 154.88v34.56h-19.2s-3.84 0-3.84 3.84V732.8s0 3.84 3.84 3.84h704.64s3.84 0 3.84-3.84v-23.04h72.96v23.04c0 23.04-7.68 38.4-23.04 53.76-11.52 15.36-30.72 23.04-53.76 23.04H80c-23.04 0-38.4-7.68-53.76-23.04s-23.04-34.56-23.04-53.76v-538.88c0-23.04 7.68-38.4 23.04-53.76s30.72-23.04 53.76-23.04h30.72L106.88 128a55.488 55.488 0 0 0-7.68 26.88zM1000.32 628.48c-15.36 15.36-34.56 23.04-53.76 23.04H238.08c-23.04 0-38.4-7.68-53.76-23.04s-23.04-34.56-23.04-53.76v-496l198.4 192.64 96.64-96.64 309.76 315.52 254.08-254.08V574.72c3.2 19.2-4.48 38.4-19.84 53.76zM408.96 357.12a78.72 78.72 0 1 0 0 157.44 78.72 78.72 0 1 0 0-157.44zM456.96 65.92l-97.92 97.92-179.84-174.72c1.92-2.56 3.2-5.12 5.12-7.04 15.36-15.36 34.56-23.04 53.76-23.04h704.64c23.04 0 38.4 7.68 53.76 23.04s23.04 34.56 23.04 53.76V128l-253.44 253.44-309.12-315.52z"  horiz-adv-x="1024" />

    
    <glyph glyph-name="guanwangguanli" unicode="&#59533;" d="M32 53.76c0-65.92 53.12-120.32 118.4-120.32H870.4c67.2 0 121.6 55.68 121.6 123.52V570.88H32v-517.12z m639.36 331.52a34.368 34.368 0 1 0 48.64 48.64l160-160c13.44-13.44 13.44-34.56 0-48.64L719.36 64c-6.4-6.4-15.36-10.24-24.32-10.24s-17.92 3.84-24.32 10.24a34.368 34.368 0 0 0 0 48.64l136.96 136.96-136.32 135.68zM422.4 97.92l113.28 321.28c6.4 17.92 25.6 26.88 43.52 21.12 17.92-6.4 26.88-25.6 21.12-43.52l-113.28-321.28a34.432 34.432 0 0 0-44.16-21.12c-17.28 6.4-26.24 25.6-20.48 43.52zM143.36 273.28l160 160a34.368 34.368 0 1 0 48.64-48.64l-136.32-136.32 136.96-136.96c13.44-13.44 13.44-35.2 0-48.64-6.4-6.4-15.36-10.24-24.32-10.24s-17.92 3.84-24.32 10.24l-160.64 160.64c-12.8 14.72-12.8 36.48 0 49.92zM991.36 734.08v30.72c0 37.76-30.72 69.12-67.84 69.12H100.48C62.72 833.92 32 802.56 32 764.8v-120.32h960v76.8c0 3.84 0 8.32-0.64 12.8z m-821.76-24.32c-17.92 0-32.64 14.08-32.64 32.64s14.08 32 32.64 32 32.64-14.72 32.64-32.64-15.36-32-32.64-32z m136.32 0a33.024 33.024 0 0 0-30.08 33.92c1.28 16 14.08 29.44 30.08 30.08 17.28 0 32.64-14.72 32.64-32.64s-14.08-31.36-32.64-31.36z m137.6 0c-17.92 0-32.64 14.08-32.64 32.64s14.08 32 32.64 32 32.64-14.72 32.64-32.64-15.36-32-32.64-32z"  horiz-adv-x="1024" />

    
    <glyph glyph-name="fenleiguanli" unicode="&#59534;" d="M364.16 892.8H90.24C42.24 892.8 3.2 853.76 3.2 805.76v-273.92c0-48 39.04-87.04 87.04-87.04h273.92c48 0 87.04 39.04 87.04 87.04V805.76C451.84 853.76 412.8 892.8 364.16 892.8zM364.16 323.84H90.24c-48 0-87.04-39.04-87.04-87.04v-273.92c0-48 39.04-87.04 87.04-87.04h273.92c48 0 87.04 39.04 87.04 87.04V236.8c0.64 48-38.4 87.04-87.04 87.04zM933.76 892.8h-273.92c-48 0-87.04-39.04-87.04-87.04v-273.92c0-48 39.04-87.04 87.04-87.04h273.92c48 0 87.04 39.04 87.04 87.04V805.76c0 48-39.04 87.04-87.04 87.04zM944 306.56h-294.4c-24.96 0-44.8-19.84-44.8-44.8s19.84-44.8 44.8-44.8h294.4c24.96 0 44.8 19.84 44.8 44.8s-20.48 44.8-44.8 44.8zM944 144h-294.4c-24.96 0-44.8-19.84-44.8-44.8s19.84-44.8 44.8-44.8h294.4c24.96 0 44.8 19.84 44.8 44.8s-20.48 44.8-44.8 44.8zM944-17.92h-294.4c-24.96 0-44.8-19.84-44.8-44.8s19.84-44.8 44.8-44.8h294.4c24.96 0 44.8 19.84 44.8 44.8s-20.48 44.8-44.8 44.8z"  horiz-adv-x="1024" />

    
    <glyph glyph-name="jiantou04" unicode="&#59520;" d="M1024 128l-512 512-512-512z"  horiz-adv-x="1024" />

    
    <glyph glyph-name="jiantou02" unicode="&#59521;" d="M512.642048 670.72c16.384 0 31.744-6.144 43.008-18.432l450.56-450.56c23.552-23.552 23.552-62.464 0-87.04a62.464 62.464 0 0 0-87.04 0L512.642048 522.24 105.090048 115.712c-23.552-23.552-62.464-23.552-87.04 0s-23.552 62.464 0 87.04l450.56 450.56c12.288 11.264 27.648 17.408 44.032 17.408z"  horiz-adv-x="1024" />

    
    <glyph glyph-name="jiantou01" unicode="&#59522;" d="M512 97.28a57.344 57.344 0 0 0-43.008 18.432l-450.56 450.56a62.464 62.464 0 0 0 0 87.04 62.464 62.464 0 0 0 87.04 0L512 245.76l407.552 407.552c23.552 23.552 62.464 23.552 87.04 0s23.552-62.464 0-87.04l-450.56-450.56c-12.288-12.288-27.648-18.432-44.032-18.432z"  horiz-adv-x="1024" />

    
    <glyph glyph-name="mima" unicode="&#59523;" d="M723.157428 620.700665c5.676275-21.569845 21.569845-38.031042 43.13969-38.031042s43.13969 21.569845 43.139689 43.13969v5.676275C804.32816 793.827051 674.341463 896 512 896c-167.450111 0-302.545455-140.771619-302.545455-302.545455v-70.385809c-70.385809-16.461197-113.525499-81.170732-113.525498-140.771618v-357.037694a151.556541 151.556541 0 0 1 151.556541-151.556542h524.487804a151.556541 151.556541 0 0 1 151.556541 151.556542V382.864745c-16.461197 86.279379-86.279379 145.880266-167.45011 145.880266H279.840355V588.345898c0 124.310421 97.064302 221.374723 221.374723 221.374723 107.849224 0 194.696231-53.924612 216.266075-151.556541l5.676275-37.463415z m113.525499-599.982261c0-43.13969-27.24612-70.385809-70.385809-70.38581H241.809313c-43.13969 0-70.385809 26.678492-70.38581 70.38581V382.864745c0 43.13969 27.24612 70.385809 70.38581 70.385809h524.487805c43.13969 0 70.385809-27.24612 70.385809-70.385809v-362.146341zM501.215078 339.725055c-21.569845 0-43.13969-21.569845-43.13969-43.139689v-145.880266c0-21.569845 21.569845-43.13969 43.13969-43.13969s43.13969 21.569845 43.139689 43.13969v151.556541c0 5.676275-5.676275 21.569845-16.461197 27.24612-5.108647 10.217295-21.002217 10.217295-26.678492 10.217294z"  horiz-adv-x="1024" />

    
    <glyph glyph-name="jiantou03" unicode="&#59524;" d="M0 640l512-512 512 512z"  horiz-adv-x="1024" />

    
    <glyph glyph-name="yonghuming" unicode="&#59525;" d="M709.424931 814.306925C658.366759 859.691967 585.18338 893.163435 506.32687 893.163435c-67.510249 0-135.587812-34.038781-191.751801-78.85651-51.058172-51.058172-73.18338-124.241551-73.183379-197.424931 0-95.8759 45.385042-169.05928 112.895291-225.790581-61.837119-22.692521-118.568421-56.163989-157.71302-95.875901-95.8759-95.8759-135.587812-220.117452-135.587811-377.83047 0-22.692521 22.692521-45.385042 45.385041-45.385042s45.385042 11.34626 45.385042 39.711911c0 169.05928 61.837119 293.300831 180.40554 372.157341 95.8759 51.058172 186.07867 56.163989 186.07867 56.163989h17.019391c118.568421 39.711911 152.607202 67.510249 180.40554 101.54903 0 5.67313 5.67313 5.67313 5.67313 11.346261 45.385042 61.837119 56.163989 95.8759 56.163989 163.386149 5.105817 102.116343-28.932964 153.174515-68.077562 197.992244z m-17.019391-197.424931c0-51.058172-11.34626-95.8759-51.058172-129.914681-39.144598-33.471468-78.85651-56.163989-135.020498-56.163989-101.54903 0-186.07867 90.20277-186.078671 191.751801S399.104709 814.306925 506.32687 814.306925c101.54903 0 186.07867-90.20277 186.07867-197.424931z m112.895291-293.300831c-17.019391 11.34626-39.711911 5.67313-51.058172-11.34626-11.34626-17.019391-5.67313-39.711911 11.346261-45.385042 0 0 34.038781-17.019391 56.163989-67.510249 34.038781-51.058172 67.510249-135.587812 67.510249-281.95457 0-17.019391 17.019391-39.711911 39.711911-39.711912 17.019391 0 39.711911 11.34626 39.711912 39.711912 0 310.320222-157.713019 400.522992-163.38615 406.196121z"  horiz-adv-x="1024" />

    
    <glyph glyph-name="touxiang" unicode="&#59519;" d="M512 896C230.4 896 0 665.6 0 384s230.4-512 512-512 512 230.4 512 512S793.6 896 512 896zM524.8 742.4c195.2 0 195.2-147.2 195.2-230.4 0-83.2-76.8-236.8-195.2-240-115.2 0-195.2 153.6-195.2 240 0 83.2 0 230.4 195.2 230.4zM512-99.2c-147.2 0-281.6 67.2-371.2 172.8 12.8 32 28.8 67.2 51.2 86.4 48 38.4 192 102.4 192 102.4l89.6-172.8 16 41.6-25.6 51.2 51.2 51.2 51.2-51.2L544 128l12.8-41.6 92.8 169.6s144-64 192-102.4c22.4-16 38.4-44.8 48-70.4-86.4-112-224-182.4-377.6-182.4z"  horiz-adv-x="1024" />

    


  </font>
</defs>
</svg>
